# xmcd
#
# Track frame offsets: 
#        150
#        15822
#        41110
#        64595
#        85197
#        97470
#        119235
#        133545
#        146965
#        164657
#        195327
#        211280
#        231612
#        250702
#        271165
#
# Disc length: 3968 seconds
#
# Revision: 1
# Processed by: cddbd v1.5.2PL0 Copyright (c) Steve Scherf et al.
# Submitted via: ExactAudioCopy v0.95b4
#
DISCID=e00f7e0f
DTITLE=Johnny Greens Blues Cowboys - Again
DYEAR=2000
DGENRE=Blues
TTITLE0=lil' red riding hood
TTITLE1=rock it down the railroad
TTITLE2=so mean to me
TTITLE3=wore me to a frazzle
TTITLE4=flyin' saucers rock n roll
TTITLE5=i get a longing to hear Hank sing the blues
TTITLE6=rocin' the boat of love
TTITLE7=(get your kicks on) route 66
TTITLE8=pipeline
TTITLE9=you're the one
TTITLE10=break - up
TTITLE11=happy baby
TTITLE12=squeeze box
TTITLE13=midnight blues
TTITLE14=highway 49
EXTD=
EXTT0=
EXTT1=
EXTT2=
EXTT3=
EXTT4=
EXTT5=
EXTT6=
EXTT7=
EXTT8=
EXTT9=
EXTT10=
EXTT11=
EXTT12=
EXTT13=
EXTT14=
PLAYORDER=
